<svg viewBox="0 0 1024 576" xmlns="http://www.w3.org/2000/svg">
  <defs>
    <linearGradient id="bol-grad" x1="0%" y1="0%" x2="100%" y2="100%">
      <stop offset="0%" style="stop-color:#2d1f1a;stop-opacity:1" />
      <stop offset="100%" style="stop-color:#3d2817;stop-opacity:1" />
    </linearGradient>
  </defs>
  <rect width="1024" height="576" fill="url(#bol-grad)"/>
  
  <!-- Title -->
  <text x="512" y="80" font-size="48" font-weight="bold" text-anchor="middle" fill="#00b4ff">
    DIGITAL BOL
  </text>
  <text x="512" y="130" font-size="24" text-anchor="middle" fill="#888888">
    Forensic-Grade Timestamps & Evidence
  </text>
  
  <!-- Document with seal -->
  <g transform="translate(150, 200)">
    <rect width="200" height="280" fill="#f5f5f5" stroke="#00b4ff" stroke-width="2" rx="8"/>
    <rect width="180" height="40" x="10" y="15" fill="#00b4ff" rx="4"/>
    <text x="100" y="40" font-size="14" text-anchor="middle" fill="#000" font-weight="bold">BILL OF LADING</text>
    
    <!-- Content lines -->
    <line x1="20" y1="70" x2="180" y2="70" stroke="#ccc" stroke-width="1"/>
    <line x1="20" y1="85" x2="180" y2="85" stroke="#ccc" stroke-width="1"/>
    <line x1="20" y1="100" x2="180" y2="100" stroke="#ccc" stroke-width="1"/>
    <line x1="20" y1="115" x2="180" y2="115" stroke="#ccc" stroke-width="1"/>
    
    <!-- Crypto seal -->
    <circle cx="240" cy="300" r="35" fill="#00ff88" opacity="0.2" stroke="#00ff88" stroke-width="2"/>
    <text x="240" y="310" font-size="24" text-anchor="middle" fill="#00ff88" font-weight="bold">🔐</text>
  </g>
  
  <!-- Timestamp chain -->
  <g transform="translate(450, 220)">
    <circle cx="0" cy="0" r="15" fill="#00ff88" stroke="#00b4ff" stroke-width="2"/>
    <text x="0" y="5" font-size="12" text-anchor="middle" fill="#000" font-weight="bold">1</text>
    <text x="0" y="35" font-size="12" text-anchor="middle" fill="#888">Gate entry</text>
    
    <line x1="30" y1="0" x2="100" y2="0" stroke="#00ff88" stroke-width="2"/>
    
    <circle cx="130" cy="0" r="15" fill="#00ff88" stroke="#00b4ff" stroke-width="2"/>
    <text x="130" y="5" font-size="12" text-anchor="middle" fill="#000" font-weight="bold">2</text>
    <text x="130" y="35" font-size="12" text-anchor="middle" fill="#888">Photo captured</text>
    
    <line x1="160" y1="0" x2="230" y2="0" stroke="#00ff88" stroke-width="2"/>
    
    <circle cx="260" cy="0" r="15" fill="#00ff88" stroke="#00b4ff" stroke-width="2"/>
    <text x="260" y="5" font-size="12" text-anchor="middle" fill="#000" font-weight="bold">3</text>
    <text x="260" y="35" font-size="12" text-anchor="middle" fill="#888">Signed + locked</text>
  </g>
  
  <!-- Benefits -->
  <g opacity="0.9" transform="translate(450, 380)">
    <text x="0" y="20" font-size="16" fill="#00ff88">✓ Cryptographic signature</text>
    <text x="0" y="50" font-size="16" fill="#00ff88">✓ Impossible to alter</text>
    <text x="0" y="80" font-size="16" fill="#00ff88">✓ Court-admissible evidence</text>
  </g>
</svg>