<svg viewBox="0 0 1024 576" xmlns="http://www.w3.org/2000/svg">
  <defs>
    <linearGradient id="yms-grad" x1="0%" y1="0%" x2="100%" y2="100%">
      <stop offset="0%" style="stop-color:#1a2847;stop-opacity:1" />
      <stop offset="100%" style="stop-color:#243d5a;stop-opacity:1" />
    </linearGradient>
  </defs>
  <rect width="1024" height="576" fill="url(#yms-grad)"/>
  
  <!-- Title -->
  <text x="512" y="80" font-size="48" font-weight="bold" text-anchor="middle" fill="#00b4ff">
    DIGITAL YMS
  </text>
  <text x="512" y="130" font-size="24" text-anchor="middle" fill="#888888">
    Real-Time Yard Visibility + Intelligence
  </text>
  
  <!-- Dashboard grid -->
  <g transform="translate(80, 180)">
    <!-- Lane visualization -->
    <g>
      <text x="0" y="0" font-size="14" fill="#00b4ff" font-weight="bold">LANE 1</text>
      <rect x="0" y="10" width="140" height="60" fill="#0a3d33" stroke="#00ff88" stroke-width="2" rx="4"/>
      <text x="70" y="45" font-size="12" text-anchor="middle" fill="#00ff88" font-weight="bold">5 trailers</text>
      <text x="70" y="60" font-size="10" text-anchor="middle" fill="#888">Avg dwell: 22hr</text>
    </g>
    
    <g transform="translate(160, 0)">
      <text x="0" y="0" font-size="14" fill="#00b4ff" font-weight="bold">LANE 2</text>
      <rect x="0" y="10" width="140" height="60" fill="#0a3d33" stroke="#ffa500" stroke-width="2" rx="4"/>
      <text x="70" y="45" font-size="12" text-anchor="middle" fill="#ffa500" font-weight="bold">3 trailers</text>
      <text x="70" y="60" font-size="10" text-anchor="middle" fill="#888">⚠ 28hr dwell</text>
    </g>
    
    <g transform="translate(0, 90)">
      <text x="0" y="0" font-size="14" fill="#00b4ff" font-weight="bold">DOCK 1</text>
      <rect x="0" y="10" width="140" height="60" fill="#0a3d33" stroke="#00ff88" stroke-width="2" rx="4"/>
      <text x="70" y="45" font-size="12" text-anchor="middle" fill="#00ff88" font-weight="bold">Available</text>
      <text x="70" y="60" font-size="10" text-anchor="middle" fill="#888">Ready for load</text>
    </g>
    
    <g transform="translate(160, 90)">
      <text x="0" y="0" font-size="14" fill="#00b4ff" font-weight="bold">DOCK 2</text>
      <rect x="0" y="10" width="140" height="60" fill="#0a3d33" stroke="#ff6b6b" stroke-width="2" rx="4"/>
      <text x="70" y="45" font-size="12" text-anchor="middle" fill="#ff6b6b" font-weight="bold">Blocked</text>
      <text x="70" y="60" font-size="10" text-anchor="middle" fill="#888">Equipment repair</text>
    </g>
  </g>
  
  <!-- KPI row -->
  <g transform="translate(500, 240)">
    <g>
      <rect x="0" y="0" width="100" height="80" fill="#0a3d33" stroke="#00b4ff" stroke-width="2" rx="6"/>
      <text x="50" y="25" font-size="18" text-anchor="middle" fill="#00ff88" font-weight="bold">156</text>
      <text x="50" y="50" font-size="12" text-anchor="middle" fill="#888">Active assets</text>
    </g>
    
    <g transform="translate(120, 0)">
      <rect x="0" y="0" width="100" height="80" fill="#0a3d33" stroke="#00b4ff" stroke-width="2" rx="6"/>
      <text x="50" y="25" font-size="18" text-anchor="middle" fill="#00ff88" font-weight="bold">23.4h</text>
      <text x="50" y="50" font-size="12" text-anchor="middle" fill="#888">Avg dwell</text>
    </g>
    
    <g transform="translate(240, 0)">
      <rect x="0" y="0" width="100" height="80" fill="#0a3d33" stroke="#00b4ff" stroke-width="2" rx="6"/>
      <text x="50" y="25" font-size="18" text-anchor="middle" fill="#00ff88" font-weight="bold">94%</text>
      <text x="50" y="50" font-size="12" text-anchor="middle" fill="#888">Utilization</text>
    </g>
  </g>
</svg>